<?xml version="1.0" standalone="no"?>
<!DOCTYPE svg PUBLIC "-//W3C//DTD SVG 20010904//EN"
 "http://www.w3.org/TR/2001/REC-SVG-20010904/DTD/svg10.dtd">
<svg version="1.0" xmlns="http://www.w3.org/2000/svg"
 width="3579.000000pt" height="2551.000000pt" viewBox="0 0 3579.000000 2551.000000"
 preserveAspectRatio="xMidYMid meet">

<g transform="translate(0.000000,2551.000000) scale(0.100000,-0.100000)"
fill="#000000" stroke="none">
<path d="M10520 21700 c-2788 -95 -5133 -731 -6788 -1843 -932 -625 -1621
-1388 -2043 -2262 -800 -1659 -611 -3591 544 -5535 714 -1202 1800 -2397 3161
-3479 2079 -1653 4711 -3003 7611 -3906 3919 -1220 7912 -1501 11150 -784
2014 446 3611 1243 4670 2331 271 278 404 442 471 583 115 240 140 514 69 761
-85 292 -323 560 -725 815 -203 129 -543 293 -772 374 -43 15 -78 32 -78 37 0
13 162 222 291 377 487 585 1005 1035 1449 1260 253 128 411 175 720 210 766
89 1747 138 2975 150 l690 6 58 28 c93 46 161 124 384 437 316 444 354 508
393 672 40 167 35 332 -21 723 -133 928 -614 1820 -1513 2802 -204 224 -634
647 -878 865 -1320 1179 -2621 2009 -3583 2287 -300 86 -474 114 -725 114
-415 1 -630 -86 -1005 -402 -121 -103 -264 -246 -360 -361 -95 -115 -223 -308
-260 -393 l-27 -62 -445 -184 c-245 -101 -452 -185 -461 -188 -10 -2 -98 53
-217 138 -1554 1099 -3383 2051 -5345 2782 -2422 903 -4990 1462 -7405 1611
-607 38 -1469 54 -1985 36z m1375 -560 c1978 -77 3939 -404 5980 -996 2291
-665 4526 -1669 6365 -2860 267 -173 410 -308 410 -388 0 -83 -69 -133 -331
-240 l-117 -48 -143 110 c-217 164 -422 311 -600 428 -87 58 -214 151 -282
205 -419 342 -509 409 -677 502 -97 53 -250 111 -453 171 -215 64 -385 102
-672 150 -394 67 -402 71 -980 449 -612 401 -770 488 -977 537 -144 34 -840
117 -1179 140 -231 15 -248 22 -504 205 -177 126 -296 198 -448 270 -337 158
-603 217 -1135 250 -135 8 -274 22 -309 30 -35 8 -133 42 -216 74 -186 72
-272 100 -477 151 -322 81 -653 139 -923 161 -224 18 -422 -2 -972 -100 -382
-68 -500 -83 -640 -83 -148 0 -238 16 -526 93 -322 85 -399 99 -584 106 -185
7 -274 -7 -397 -58 -208 -88 -294 -102 -438 -75 -47 9 -195 50 -330 91 -465
144 -659 184 -930 192 -407 13 -726 -71 -1175 -308 -251 -132 -356 -164 -588
-179 -238 -16 -233 -13 -402 -225 -181 -227 -247 -286 -366 -324 -64 -21 -220
-56 -849 -191 -184 -40 -369 -85 -410 -101 -225 -86 -451 -265 -616 -488 -109
-146 -161 -262 -184 -404 -15 -89 -35 -128 -87 -160 -21 -13 -169 -90 -328
-170 -295 -148 -441 -235 -506 -301 -66 -67 -120 -191 -156 -356 -24 -113 -24
-465 0 -657 43 -339 49 -407 49 -543 0 -159 -14 -267 -69 -545 -29 -145 -36
-203 -37 -300 0 -107 3 -127 28 -190 39 -101 130 -270 321 -600 191 -330 265
-477 294 -585 11 -41 34 -165 51 -275 17 -110 40 -240 52 -290 78 -336 245
-605 574 -925 164 -160 285 -258 669 -545 427 -319 463 -355 680 -665 354
-507 469 -658 664 -874 284 -315 582 -548 911 -712 267 -133 521 -219 1145
-390 629 -172 810 -230 1120 -359 327 -136 592 -269 1005 -505 368 -209 503
-276 732 -360 294 -108 599 -139 1373 -140 598 0 957 -36 1220 -122 129 -42
390 -173 530 -266 66 -45 172 -124 235 -178 175 -148 296 -220 472 -282 151
-54 241 -67 453 -66 218 0 301 10 745 88 449 80 534 90 770 90 173 1 222 -3
315 -22 252 -51 517 -147 995 -362 595 -268 799 -334 1112 -361 236 -20 401 7
610 101 179 81 217 91 361 97 236 10 420 -30 767 -167 266 -105 352 -129 480
-137 241 -14 494 77 1005 363 252 140 487 259 610 307 202 80 419 122 715 137
538 28 589 35 696 87 62 30 123 91 265 265 86 106 509 664 509 673 0 2 -16 1
-35 -2 -42 -7 -54 2 -108 82 -66 98 -123 160 -229 247 -99 82 -328 251 -412
304 -32 20 -51 43 -74 89 -96 194 -307 360 -619 484 -213 84 -466 145 -678
161 -149 11 -227 29 -297 67 -96 52 -217 203 -392 485 -36 59 -66 110 -66 112
0 3 56 -22 125 -55 467 -220 840 -362 1192 -454 385 -100 682 -220 888 -359
33 -22 137 -102 230 -178 185 -151 316 -247 398 -291 75 -41 113 -35 277 44
730 352 1445 989 1913 1705 212 325 333 605 393 909 27 136 25 391 -4 507 -58
232 -166 389 -316 459 -190 89 -370 53 -639 -128 -78 -53 -200 -124 -271 -158
l-130 -62 90 -22 c49 -13 121 -25 159 -28 66 -5 77 -3 185 40 147 58 188 68
266 68 80 0 134 -23 197 -85 81 -78 107 -168 107 -368 0 -209 -41 -305 -149
-343 -67 -23 -115 -19 -359 35 -348 76 -405 84 -602 84 -154 1 -184 -2 -245
-21 -129 -41 -333 -181 -361 -250 -8 -18 -14 -54 -14 -80 0 -154 -144 -436
-287 -563 -97 -86 -208 -113 -291 -71 -111 57 -184 164 -183 271 0 142 110
289 389 524 83 70 96 85 131 159 51 107 73 201 74 312 0 113 -18 178 -90 317
-96 185 -191 281 -358 363 -104 51 -391 142 -655 210 -102 26 -207 58 -233 73
-86 46 -135 119 -196 285 -51 141 -80 188 -138 224 -26 16 -88 54 -136 84
-123 75 -247 193 -286 271 -19 36 -31 77 -31 99 0 86 68 204 189 332 95 100
185 168 286 217 109 53 169 63 283 50 182 -20 314 -54 682 -175 349 -114 417
-129 565 -123 98 5 140 13 390 82 728 200 1057 263 1310 253 405 -17 552 -97
1020 -558 138 -135 270 -257 295 -271 25 -15 113 -49 195 -78 83 -28 206 -79
275 -113 114 -55 133 -69 215 -151 73 -73 99 -107 133 -176 91 -185 112 -381
66 -610 l-7 -35 26 18 c27 17 27 17 37 -8 6 -15 10 -35 10 -46 0 -11 18 -46
39 -78 37 -55 39 -61 29 -94 -10 -34 -15 -37 -67 -48 -31 -6 -72 -20 -92 -30
-96 -48 -193 -217 -284 -493 -30 -91 -55 -172 -55 -181 0 -12 15 -5 58 23 241
164 579 316 794 357 128 25 326 29 669 16 589 -24 671 4 1094 367 77 66 165
135 195 153 111 64 192 123 258 186 51 49 61 63 42 58 -14 -4 -65 -18 -114
-31 -64 -17 -114 -24 -181 -24 -119 0 -185 21 -241 75 -67 65 -88 139 -149
525 -38 247 -92 445 -155 570 -106 211 -386 450 -878 751 -81 49 -159 103
-173 120 -15 17 -36 64 -49 107 -12 42 -32 100 -43 127 -78 185 -279 432 -444
544 -124 83 -208 118 -479 200 -148 45 -181 71 -291 231 -150 220 -296 362
-588 575 -425 309 -836 517 -1205 610 -271 68 -546 77 -736 25 l-75 -20 -139
40 c-76 23 -173 44 -215 48 l-78 7 56 38 c103 71 151 136 204 276 102 270 286
515 487 646 175 114 325 158 541 159 224 0 476 -60 870 -206 938 -350 2057
-1062 3060 -1947 965 -852 1694 -1842 2102 -2856 55 -136 156 -435 149 -442
-1 -1 -37 11 -79 27 -216 84 -428 87 -582 7 l-40 -21 35 -9 c105 -28 277 -90
341 -123 296 -148 400 -337 317 -577 -66 -194 -187 -393 -330 -543 -99 -103
-155 -148 -239 -191 l-54 -28 -385 -6 c-212 -4 -893 -7 -1513 -8 -725 -1
-1163 -5 -1225 -12 -416 -45 -832 -240 -1435 -671 -675 -483 -1313 -1081
-1740 -1633 -136 -176 -277 -404 -277 -449 0 -21 54 -60 125 -89 33 -14 164
-61 290 -105 289 -100 424 -155 595 -243 297 -153 497 -337 577 -532 31 -75
42 -227 24 -333 -36 -207 -170 -487 -340 -709 -75 -99 -229 -252 -351 -350
-1395 -1117 -3540 -1829 -6105 -2025 -520 -39 -704 -45 -1445 -45 -713 0 -873
5 -1410 41 -2832 189 -5885 956 -8580 2156 -514 229 -1172 552 -1630 798
-3722 2009 -6272 4728 -6844 7300 -78 349 -114 640 -123 990 -15 608 80 1155
300 1715 67 171 252 538 351 695 554 880 1379 1584 2521 2150 1453 720 3316
1142 5435 1229 276 12 1240 12 1525 1z m-2388 -2147 c166 -133 223 -166 348
-202 125 -36 282 -108 435 -201 312 -187 874 -602 1203 -889 l98 -85 -28 -15
c-82 -42 -250 -105 -354 -131 l-119 -30 -92 64 c-81 56 -138 113 -443 446
-192 209 -360 393 -373 408 -16 19 26 -116 148 -476 93 -277 170 -509 170
-516 0 -10 -60 -15 -272 -20 -150 -3 -330 -9 -399 -12 l-126 -6 -48 118 c-173
433 -238 718 -265 1159 -9 150 -5 475 6 475 2 0 52 -39 111 -87z m5748 -12
c144 -22 320 -59 588 -127 235 -59 288 -70 489 -100 454 -67 552 -121 1331
-721 704 -543 681 -528 932 -603 186 -55 257 -86 425 -184 433 -253 636 -475
591 -644 -44 -162 -376 -364 -760 -462 -249 -63 -446 -69 -746 -22 -377 59
-516 65 -776 30 -218 -29 -513 -31 -644 -5 -213 43 -341 99 -571 248 -336 217
-537 282 -1062 340 -324 35 -423 55 -528 103 -70 33 -91 51 -253 215 -203 207
-332 311 -711 578 -375 265 -492 355 -596 458 -110 110 -149 179 -142 254 12
119 175 253 391 320 117 36 236 52 467 61 426 17 547 31 750 86 113 31 134 41
197 96 89 77 158 95 368 97 82 0 178 -6 260 -18z m10889 -2197 c3 -9 6 -27 6
-41 0 -87 109 -458 199 -677 22 -55 39 -101 38 -102 -2 -2 -202 128 -446 288
-349 231 -439 294 -424 300 78 33 609 247 614 248 4 0 10 -7 13 -16z m-3667
-387 l121 -88 -70 -210 c-43 -130 -76 -213 -86 -218 -31 -16 -602 -251 -611
-251 -5 0 -39 27 -75 60 l-65 59 102 55 c56 30 187 99 292 153 149 77 193 105
207 129 14 25 20 69 28 205 5 96 10 182 10 192 0 22 -5 25 147 -86z m-13585
-516 c245 -80 530 -260 1106 -700 406 -308 398 -304 642 -381 436 -138 695
-269 874 -439 130 -125 212 -269 282 -500 30 -98 44 -129 69 -151 16 -15 72
-65 124 -110 159 -141 245 -259 276 -375 37 -145 -39 -246 -210 -276 -135 -23
-325 -5 -815 81 -442 77 -505 84 -705 84 -221 0 -322 -16 -715 -115 -414 -105
-566 -126 -702 -98 -85 17 -244 100 -362 189 -168 127 -304 212 -497 310 -379
193 -562 247 -984 290 -110 12 -231 28 -270 36 -172 38 -334 153 -397 282 -32
64 -33 72 -33 182 1 83 8 146 25 225 15 69 24 144 24 200 1 78 -3 98 -27 149
-31 67 -96 161 -177 255 -213 250 -268 357 -227 438 41 78 195 177 355 227
248 78 518 83 1042 21 113 -14 223 -25 245 -25 69 0 153 28 315 104 253 120
317 136 505 132 125 -3 150 -7 237 -35z m12420 -423 c89 -130 233 -277 343
-350 92 -61 432 -233 562 -284 40 -16 73 -32 73 -35 0 -3 -57 -18 -127 -32
l-128 -27 -260 41 c-146 22 -326 44 -410 48 -103 6 -186 17 -262 35 -62 15
-163 32 -225 40 -126 14 -127 14 66 51 71 13 130 26 131 27 1 2 39 132 85 291
46 158 85 287 87 287 1 0 30 -42 65 -92z m-7864 -139 c127 -14 375 -65 706
-146 l279 -68 67 -65 c36 -36 79 -90 95 -121 28 -54 28 -58 12 -82 -56 -85
-764 -234 -969 -203 l-45 7 -12 84 c-6 46 -16 97 -22 114 -11 31 -144 140
-447 364 l-142 105 52 11 c105 21 234 21 426 0z m7882 -636 c157 -61 364 -163
426 -209 65 -48 98 -95 89 -125 -11 -33 -82 -107 -145 -149 -125 -84 -276
-147 -485 -200 -246 -63 -446 -91 -512 -74 -19 5 -23 13 -23 45 0 83 -32 278
-60 359 -15 48 -48 132 -73 188 l-45 101 57 12 c164 34 609 107 631 103 13 -3
76 -26 140 -51z m-6593 -130 c16 -24 18 -51 16 -235 -2 -242 -13 -299 -65
-343 -18 -15 -118 -79 -223 -144 -104 -64 -209 -129 -232 -144 l-43 -27 -19
38 c-36 71 -160 164 -434 327 l-99 59 39 19 c21 11 189 98 373 194 317 165
581 280 647 282 14 1 29 -9 40 -26z m3700 -393 c-129 -85 -221 -175 -266 -260
-29 -53 -35 -78 -39 -142 -3 -43 1 -98 7 -124 7 -25 10 -48 8 -50 -3 -3 -825
-74 -860 -74 -20 0 -37 56 -37 121 0 93 48 179 134 238 23 16 173 84 332 151
159 67 298 128 310 135 28 18 335 63 498 74 11 0 -29 -30 -87 -69z m129 -1152
c65 -87 77 -119 72 -199 -4 -71 -24 -109 -59 -109 -27 0 -329 97 -459 147
-150 57 -353 154 -343 164 13 12 325 41 527 48 105 5 196 9 203 9 6 1 33 -26
59 -60z m2664 -192 c-24 -14 -24 -14 20 -20 25 -4 257 -29 515 -56 672 -72
1676 -183 2125 -236 984 -115 1580 -233 1832 -360 57 -29 124 -87 143 -123 29
-57 46 -274 23 -297 -6 -6 35 -12 -2008 282 -1719 247 -2625 379 -3020 440
-162 26 -330 49 -374 53 l-79 6 48 53 c127 141 289 215 530 242 97 11 240 26
260 28 6 1 -1 -5 -15 -12z m1822 -1187 l2467 -373 -20 -31 c-84 -129 -131
-244 -151 -370 -40 -260 113 -503 421 -664 319 -166 623 -108 886 170 77 82
156 198 181 267 123 337 185 422 331 452 128 27 576 -27 691 -82 48 -23 82
-68 82 -110 0 -71 -50 -158 -188 -327 -339 -414 -754 -759 -1147 -952 -186
-91 -421 -179 -480 -179 -50 0 -119 32 -376 178 -597 336 -841 448 -1399 642
-371 129 -567 207 -775 310 -144 72 -210 111 -330 201 -82 61 -187 133 -234
161 -248 146 -780 382 -1986 877 -264 109 -487 201 -495 205 -25 11 -21 10
2522 -375z m-12509 214 c56 -168 67 -271 48 -463 -6 -62 -7 -65 -50 -94 -24
-16 -183 -80 -354 -142 -170 -63 -312 -116 -314 -118 -6 -6 120 -33 217 -46
52 -8 175 -11 320 -9 l235 4 0 -130 0 -130 -40 -78 c-21 -43 -42 -80 -45 -82
-8 -5 -209 42 -345 80 -418 118 -812 295 -1160 523 l-100 65 160 32 c488 98
777 233 1222 568 78 59 145 112 148 117 14 22 23 5 58 -97z m5072 -508 c350
-32 383 -37 605 -88 263 -61 529 -133 659 -179 198 -70 269 -126 394 -313 44
-66 101 -141 126 -168 71 -76 508 -401 904 -672 237 -162 359 -263 425 -351
114 -150 105 -252 -34 -385 -152 -144 -298 -173 -649 -129 -223 28 -310 26
-410 -8 -44 -15 -165 -73 -270 -129 -289 -155 -417 -201 -612 -223 -105 -12
-241 -1 -368 29 -233 56 -358 120 -766 392 -661 441 -962 565 -1519 629 -300
35 -423 66 -580 146 -222 114 -474 366 -559 559 -30 67 -51 159 -51 220 0 103
50 233 112 291 94 89 414 202 677 238 150 21 244 20 408 -5 99 -16 187 -22
313 -23 241 -1 325 18 540 121 123 58 194 81 250 82 19 0 202 -15 405 -34z
m5367 -1775 c145 -28 262 -70 434 -154 285 -140 573 -326 703 -455 110 -109
256 -311 234 -324 -31 -19 -193 -32 -393 -31 -180 0 -254 5 -370 23 -239 36
-458 98 -628 178 -132 62 -412 266 -559 407 l-88 85 50 1 c57 0 133 19 190 46
54 25 146 118 185 187 l32 57 54 0 c29 0 99 -9 156 -20z"/>
</g>
</svg>
